<svg id="Layer_1" data-name="Layer 1" xmlns="http://www.w3.org/2000/svg" viewBox="0 0 20 20"><defs><style>.cls-1{fill:#f2c166;}.cls-2{fill:#fff;}</style></defs><g id="Favourite"><path class="cls-1" d="M14.6,17.9l-3.5-1.8a.9.9,0,0,0-.7,0L6.9,18a.8.8,0,0,1-1.1-.8l.6-3.9a.6.6,0,0,0-.2-.7L3.3,9.9a.8.8,0,0,1,.4-1.3l4-.6a1,1,0,0,0,.5-.4L10,4a.7.7,0,0,1,1.3,0l1.8,3.5a.7.7,0,0,0,.6.4l3.9.6a.7.7,0,0,1,.5,1.2l-2.9,2.8a1,1,0,0,0-.2.7l.7,3.9a.8.8,0,0,1-1.1.8"/><path class="cls-1" d="M14.6,17.9l.3-.4-3.6-1.8-.5-.2-.6.2L6.6,17.6H6.4v-.2h0l.6-3.9h0v-.2a1.2,1.2,0,0,0-.3-.9h0L3.7,9.5V9.3h.2l4-.6a1.3,1.3,0,0,0,.9-.7h0l1.7-3.6h.5l1.8,3.5a1,1,0,0,0,.9.6l4,.6h.1v.4l-2.8,2.8h0a1,1,0,0,0-.4.9v.2h0l.7,3.9h-.3l-.3.4-.2.5H15a1.2,1.2,0,0,0,1.2-1.2V17h0l-.7-3.9h0v-.2L18.5,10h-.1a1.2,1.2,0,0,0,.4-.9,1.1,1.1,0,0,0-.3-.8,1.2,1.2,0,0,0-.8-.4l-4-.6h-.1L11.8,3.7h0a1.2,1.2,0,0,0-1.2-.6,1,1,0,0,0-1.1.7L7.8,7.4H7.6l-3.9.6a1,1,0,0,0-.8.4,1.3,1.3,0,0,0-.3.8,1.1,1.1,0,0,0,.4.9L5.9,13h0v.2h0v.2l-.6,3.7h0v.2a1.2,1.2,0,0,0,1.2,1.3l.6-.2,3.6-1.9h.2l3.5,1.9h0l.2-.5"/><path class="cls-1" d="M18,14.3a4.7,4.7,0,0,1-4.8,4.8,4.8,4.8,0,0,1,0-9.6A4.7,4.7,0,0,1,18,14.3"/><path class="cls-2" d="M18.5,14.3h0M13.2,9a5.3,5.3,0,0,0-5.3,5.3,5.9,5.9,0,0,0,.5,2.3l.5.9a5.5,5.5,0,0,0,4.3,2.1,5.3,5.3,0,0,0,5.3-5.3H18a4.7,4.7,0,0,1-4.8,4.8,4.8,4.8,0,0,1,0-9.6A4.7,4.7,0,0,1,18,14.3h.5a5.2,5.2,0,0,0-1.1-3.2,2.7,2.7,0,0,0-.7-.8A5.2,5.2,0,0,0,13.2,9"/><path class="cls-1" d="M13.2,9.5a4.8,4.8,0,0,0,0,9.6A4.7,4.7,0,0,0,18,14.3h-.5a4.3,4.3,0,0,1-1.2,3,4.4,4.4,0,0,1-3.1,1.3,4,4,0,0,1-3-1.3,4,4,0,0,1-1.3-3,4.4,4.4,0,0,1,1.3-3.1,4.3,4.3,0,0,1,3-1.2,4.8,4.8,0,0,1,3.1,1.2,4.8,4.8,0,0,1,1.2,3.1H18a4.7,4.7,0,0,0-4.8-4.8"/><path class="cls-2" d="M12.7,13.8H10.9a.5.5,0,0,0,0,1h1.8v-1m2.8,0H13.7v1h1.8a.5.5,0,0,0,0-1"/><path class="cls-2" d="M13.2,11.5a.5.5,0,0,0-.5.5v4.6a.5.5,0,0,0,1,0V12a.5.5,0,0,0-.5-.5"/></g></svg>