<svg id="HomeDec." xmlns="http://www.w3.org/2000/svg" viewBox="0 0 353.6 395.09"><defs><style>.cls-1{fill:#f8faf9;}</style></defs><g id="Logo"><rect class="cls-1" x="136.13" y="239.16" width="28.8" height="153.63"/><rect class="cls-1" x="197.73" y="239.16" width="28.8" height="81.62"/><rect class="cls-1" x="255.73" y="205.82" width="28.8" height="114.95"/><rect class="cls-1" x="237.47" y="278.66" width="28.8" height="199.47" transform="translate(630.26 126.52) rotate(90)"/><rect class="cls-1" x="2.49" y="175.04" width="28.8" height="217.75"/><rect class="cls-1" x="233.17" y="269.41" width="28.8" height="73.93" transform="translate(553.94 58.81) rotate(90)"/><rect class="cls-1" x="322.8" y="178.36" width="28.8" height="213.73"/><rect class="cls-1" x="121.75" y="90.09" width="28.8" height="153.6" transform="translate(157.89 -47.4) rotate(45)"/><rect class="cls-1" x="84.61" y="-23.14" width="28.8" height="243.95" transform="translate(98.89 -41.06) rotate(45)"/><rect class="cls-1" x="71.67" y="211.29" width="28.8" height="181.5"/><rect class="cls-1" x="207.98" y="91.16" width="28.8" height="146.32" transform="translate(495.81 123.26) rotate(135)"/><rect class="cls-1" x="241.9" y="-15.39" width="28.8" height="238.63" transform="translate(511.02 -3.81) rotate(135)"/></g></svg>